<svg xmlns="http://www.w3.org/2000/svg"  viewBox="0 0 100 100" width="100px" height="100px"><path d="M 38 12 C 34.698375 12 32 14.698375 32 18 L 32 44.289062 C 31.285765 44.526052 30.19862 44.954992 28.880859 45.994141 C 26.950108 47.516676 25 50.221834 25 54.439453 C 25 56.129213 25.687612 58.099152 26.650391 60.25 C 27.61317 62.400848 28.878192 64.698044 30.140625 66.816406 C 32.572733 70.897483 34.824885 74.050871 35 74.296875 L 35 86 A 1.0001 1.0001 0 0 0 36 87 L 73 87 A 1.0001 1.0001 0 0 0 74 86 L 74 40 C 74 36.698375 71.301625 34 68 34 C 66.242784 34 64.695293 34.794961 63.595703 36.007812 C 62.763982 33.689943 60.595901 32 58 32 C 56.242784 32 54.695293 32.794961 53.595703 34.007812 C 52.763982 31.689942 50.595901 30 48 30 C 46.452095 30 45.06681 30.631246 44 31.601562 L 44 18 C 44 14.698375 41.301625 12 38 12 z M 38 14 C 40.220375 14 42 15.779625 42 18 L 42 36 L 42 37 L 44 37 L 44 36 C 44 33.779625 45.779625 32 48 32 C 50.220375 32 52 33.779625 52 36 L 52 38 L 52 39 L 54 39 L 54 38 C 54 35.779625 55.779625 34 58 34 C 60.220375 34 62 35.779625 62 38 L 62 40 L 62 41 L 64 41 L 64 40 C 64 37.779625 65.779625 36 68 36 C 70.220375 36 72 37.779625 72 40 L 72 85 L 37 85 L 37 74 L 61.5 74 A 0.50005 0.50005 0 1 0 61.5 73 L 36.527344 73 C 36.12972 72.437997 34.105176 69.561422 31.859375 65.792969 C 30.621808 63.716331 29.38683 61.471495 28.474609 59.433594 C 27.562388 57.395692 27 55.529693 27 54.439453 C 27 50.817072 28.549892 48.801917 30.119141 47.564453 C 31.688389 46.326989 33.222656 45.974609 33.222656 45.974609 A 1.0001 1.0001 0 0 0 34 45 L 34 18 C 34 15.779625 35.779625 14 38 14 z M 42.492188 43.992188 A 0.50005 0.50005 0 0 0 42 44.5 L 42 62.5 A 0.50005 0.50005 0 1 0 43 62.5 L 43 44.5 A 0.50005 0.50005 0 0 0 42.492188 43.992188 z M 52.492188 44.992188 A 0.50005 0.50005 0 0 0 52 45.5 L 52 57.5 A 0.50005 0.50005 0 1 0 53 57.5 L 53 45.5 A 0.50005 0.50005 0 0 0 52.492188 44.992188 z M 62.492188 45.992188 A 0.50005 0.50005 0 0 0 62 46.5 L 62 55.5 A 0.50005 0.50005 0 1 0 63 55.5 L 63 46.5 A 0.50005 0.50005 0 0 0 62.492188 45.992188 z M 52.492188 59.992188 A 0.50005 0.50005 0 0 0 52 60.5 L 52 62.5 A 0.50005 0.50005 0 1 0 53 62.5 L 53 60.5 A 0.50005 0.50005 0 0 0 52.492188 59.992188 z M 64.5 73 A 0.50005 0.50005 0 1 0 64.5 74 L 66.5 74 A 0.50005 0.50005 0 1 0 66.5 73 L 64.5 73 z M 68.5 73 A 0.50005 0.50005 0 1 0 68.5 74 L 69.5 74 A 0.50005 0.50005 0 1 0 69.5 73 L 68.5 73 z M 64.5 77 C 63.12521 77 62 78.12521 62 79.5 C 62 80.87479 63.12521 82 64.5 82 C 65.87479 82 67 80.87479 67 79.5 C 67 78.12521 65.87479 77 64.5 77 z M 64.5 78 C 65.334349 78 66 78.665651 66 79.5 C 66 80.334349 65.334349 81 64.5 81 C 63.665651 81 63 80.334349 63 79.5 C 63 78.665651 63.665651 78 64.5 78 z"/></svg>